<svg width="90" height="80" viewBox="0 0 90 80" fill="none" xmlns="http://www.w3.org/2000/svg">
<path d="M82.783 0C85.2506 -1.83786e-06 87.3498 1.80045 87.7254 4.23926L89.9276 18.541C89.9663 18.7927 89.9862 19.0471 89.9862 19.3018V76.9531C89.9862 77.8327 89.5095 78.6435 88.741 79.0713C87.7623 79.616 86.5378 79.4188 85.7791 78.5947L76.4862 68.5L71.5838 63.4521C70.6423 62.4826 69.3484 61.9355 67.9969 61.9355H61.2059C61.3057 61.2758 61.3563 60.5842 61.3563 59.8604V41.3203C61.3563 40.0004 61.6567 38.9201 62.2567 38.0801C62.9167 37.2401 63.6965 36.5796 64.5965 36.0996C65.4964 35.6197 66.4266 35.2904 67.3865 35.1104C68.3465 34.8704 69.1572 34.75 69.8172 34.75V26.6504C69.1572 26.6504 68.3465 26.5599 67.3865 26.3799C66.4266 26.1399 65.4964 25.7499 64.5965 25.21C63.6966 24.67 62.9166 23.9199 62.2567 22.96C61.6567 22.0001 61.3563 20.8002 61.3563 19.3604V1.54004C61.3563 1.00948 61.3298 0.496089 61.2762 0H82.783ZM51.0946 0C51.2922 0.467116 51.4138 0.980192 51.4569 1.54004C51.5768 2.26 51.6365 2.95038 51.6365 3.61035V20.6201C51.6366 22.78 51.9967 24.5199 52.7166 25.8398C53.4366 27.0998 54.2771 28.0896 55.2371 28.8096C56.2571 29.4695 57.2767 29.9202 58.2967 30.1602C59.3767 30.4002 60.2769 30.5504 60.9969 30.6104V30.79C60.2769 30.91 59.3767 31.1199 58.2967 31.4199C57.2768 31.7199 56.2571 32.2303 55.2371 32.9502C54.2771 33.6102 53.4366 34.5402 52.7166 35.7402C51.9967 36.9402 51.6365 38.4404 51.6365 40.2402V57.79C51.6365 58.45 51.5769 59.1404 51.4569 59.8604C51.3968 60.6401 51.1868 61.3299 50.827 61.9297C50.8259 61.9316 50.8241 61.9336 50.8231 61.9355H36.6199C36.6188 61.9335 36.6171 61.9317 36.616 61.9297C36.2561 61.3298 36.0163 60.6401 35.8963 59.8604C35.8363 59.1404 35.8055 58.45 35.8055 57.79V40.7803C35.8055 38.6203 35.4454 36.9104 34.7254 35.6504C34.0054 34.3304 33.136 33.3397 32.116 32.6797C31.156 31.9597 30.1355 31.4802 29.0555 31.2402C28.0357 31.0003 27.166 30.85 26.4461 30.79V30.6104C27.166 30.5503 28.0358 30.3702 29.0555 30.0703C30.1355 29.7103 31.156 29.2 32.116 28.54C33.1359 27.8201 34.0055 26.86 34.7254 25.6602C35.4454 24.4602 35.8055 22.9601 35.8055 21.1602V3.61035C35.8055 2.95037 35.8363 2.26002 35.8963 1.54004C35.9824 0.980215 36.1309 0.467101 36.3406 0H51.0946ZM26.1658 0.00683594C26.1127 0.50081 26.0858 1.01191 26.0858 1.54004V20.0801C26.0857 21.4 25.7555 22.4803 25.0955 23.3203C24.4356 24.1601 23.6555 24.8497 22.7557 25.3896C21.8557 25.8696 20.9256 26.1999 19.9656 26.3799C19.0057 26.5599 18.2258 26.6504 17.6258 26.6504V34.75C18.2258 34.75 19.0057 34.8704 19.9656 35.1104C20.9256 35.2904 21.8557 35.6504 22.7557 36.1904C23.6557 36.7304 24.4355 37.4805 25.0955 38.4404C25.7555 39.4004 26.0858 40.6001 26.0858 42.04V59.8604C26.0858 60.5842 26.1373 61.2758 26.2371 61.9355H6.86701C4.22474 61.9355 2.03892 59.8795 1.87678 57.2422L0.00959055 26.8672C-0.00598687 26.6137 -0.00271444 26.3593 0.0203327 26.1064L1.79279 6.66113C2.00921 4.28832 3.86998 2.39761 6.23908 2.14355L26.1658 0.00683594Z" fill="white"/>
</svg>
