<svg width="83" height="74" viewBox="0 0 83 74" fill="none" xmlns="http://www.w3.org/2000/svg">
<path d="M81.5717 73.0754C82.2053 72.7201 82.5977 72.0502 82.5977 71.3236L82.5977 61.6541L82.5977 51.3225L82.5977 17.8799C82.5977 17.627 82.5785 17.3745 82.5403 17.1245L80.5719 4.24464C80.1988 1.80324 78.099 -1.31518e-05 75.6293 -1.11671e-05L47.9646 1.10644e-05L24.0797 5.52307e-06L6.05967 1.94701C3.69086 2.20295 1.83171 4.09479 1.6171 6.4677L0.0202959 24.123C-0.00240109 24.374 -0.00609526 24.6263 0.00924493 24.8778L1.69976 52.5947C1.86068 55.233 4.04728 57.2903 6.69049 57.2903L33.9862 57.2903L62.9862 57.2903L65.6196 57.2903C67.1177 57.2903 68.5368 57.962 69.4865 59.1206L73.4862 64L78.9002 72.4108C79.475 73.3037 80.6455 73.5949 81.5717 73.0754Z" fill="white"/>
</svg>
