<svg width="352" height="88" viewBox="0 0 352 88" fill="none" xmlns="http://www.w3.org/2000/svg">
<path d="M145.826 23.96H158.186V32.96H145.826V71.48C145.826 72.68 145.906 73.64 146.066 74.36C146.306 75.08 146.706 75.64 147.266 76.04C147.826 76.44 148.586 76.72 149.546 76.88C150.586 76.96 151.906 77 153.506 77H158.186V86H150.386C147.746 86 145.466 85.84 143.546 85.52C141.706 85.12 140.186 84.44 138.986 83.48C137.866 82.52 137.026 81.16 136.466 79.4C135.906 77.64 135.626 75.32 135.626 72.44V32.96H125.066V23.96H135.626V5.35999H145.826V23.96ZM211.998 49.04C211.838 46.64 211.278 44.36 210.318 42.2C209.438 40.04 208.198 38.2 206.598 36.68C205.078 35.08 203.238 33.84 201.078 32.96C198.998 32 196.678 31.52 194.118 31.52C191.478 31.52 189.078 32 186.918 32.96C184.838 33.84 183.038 35.08 181.518 36.68C179.998 38.28 178.798 40.16 177.918 42.32C177.038 44.4 176.518 46.64 176.358 49.04H211.998ZM221.838 66.32C220.478 73.28 217.478 78.52 212.838 82.04C208.198 85.56 202.358 87.32 195.318 87.32C190.358 87.32 186.038 86.52 182.358 84.92C178.758 83.32 175.718 81.08 173.238 78.2C170.758 75.32 168.878 71.88 167.598 67.88C166.398 63.88 165.718 59.52 165.558 54.8C165.558 50.08 166.278 45.76 167.718 41.84C169.158 37.92 171.158 34.52 173.718 31.64C176.358 28.76 179.438 26.52 182.958 24.92C186.558 23.32 190.478 22.52 194.718 22.52C200.238 22.52 204.798 23.68 208.398 26C212.078 28.24 214.998 31.12 217.158 34.64C219.398 38.16 220.918 42 221.718 46.16C222.598 50.32 222.958 54.28 222.798 58.04H176.358C176.278 60.76 176.598 63.36 177.318 65.84C178.038 68.24 179.198 70.4 180.798 72.32C182.398 74.16 184.438 75.64 186.918 76.76C189.398 77.88 192.318 78.44 195.678 78.44C199.998 78.44 203.518 77.44 206.238 75.44C209.038 73.44 210.878 70.4 211.758 66.32H221.838ZM287.731 85.76C285.971 86.8 283.531 87.32 280.411 87.32C277.771 87.32 275.651 86.6 274.051 85.16C272.531 83.64 271.771 81.2 271.771 77.84C268.971 81.2 265.691 83.64 261.931 85.16C258.251 86.6 254.251 87.32 249.931 87.32C247.131 87.32 244.451 87 241.891 86.36C239.411 85.72 237.251 84.72 235.411 83.36C233.571 82 232.091 80.24 230.971 78.08C229.931 75.84 229.411 73.16 229.411 70.04C229.411 66.52 230.011 63.64 231.211 61.4C232.411 59.16 233.971 57.36 235.891 56C237.891 54.56 240.131 53.48 242.611 52.76C245.171 52.04 247.771 51.44 250.411 50.96C253.211 50.4 255.851 50 258.331 49.76C260.891 49.44 263.131 49.04 265.051 48.56C266.971 48 268.491 47.24 269.611 46.28C270.731 45.24 271.291 43.76 271.291 41.84C271.291 39.6 270.851 37.8 269.971 36.44C269.171 35.08 268.091 34.04 266.731 33.32C265.451 32.6 263.971 32.12 262.291 31.88C260.691 31.64 259.091 31.52 257.491 31.52C253.171 31.52 249.571 32.36 246.691 34.04C243.811 35.64 242.251 38.72 242.011 43.28H231.811C231.971 39.44 232.771 36.2 234.211 33.56C235.651 30.92 237.571 28.8 239.971 27.2C242.371 25.52 245.091 24.32 248.131 23.6C251.251 22.88 254.571 22.52 258.091 22.52C260.891 22.52 263.651 22.72 266.371 23.12C269.171 23.52 271.691 24.36 273.931 25.64C276.171 26.84 277.971 28.56 279.331 30.8C280.691 33.04 281.371 35.96 281.371 39.56V71.48C281.371 73.88 281.491 75.64 281.731 76.76C282.051 77.88 283.011 78.44 284.611 78.44C285.491 78.44 286.531 78.24 287.731 77.84V85.76ZM271.171 53.96C269.891 54.92 268.211 55.64 266.131 56.12C264.051 56.52 261.851 56.88 259.531 57.2C257.291 57.44 255.011 57.76 252.691 58.16C250.371 58.48 248.291 59.04 246.451 59.84C244.611 60.64 243.091 61.8 241.891 63.32C240.771 64.76 240.211 66.76 240.211 69.32C240.211 71 240.531 72.44 241.171 73.64C241.891 74.76 242.771 75.68 243.811 76.4C244.931 77.12 246.211 77.64 247.651 77.96C249.091 78.28 250.611 78.44 252.211 78.44C255.571 78.44 258.451 78 260.851 77.12C263.251 76.16 265.211 75 266.731 73.64C268.251 72.2 269.371 70.68 270.091 69.08C270.811 67.4 271.171 65.84 271.171 64.4V53.96ZM297.224 0.319994H307.424V51.08L335.744 23.96H349.424L324.824 46.52L351.224 86H338.264L317.024 53.6L307.424 62.48V86H297.224V0.319994Z" fill="white"/>
<path d="M82.783 6.00006C85.2506 6.00006 87.3498 7.80051 87.7254 10.2393L89.9276 24.5411C89.9663 24.7928 89.9862 25.0472 89.9862 25.3018V82.9532C89.9862 83.8327 89.5095 84.6436 88.741 85.0714C87.7623 85.6161 86.5378 85.4189 85.7791 84.5948L76.4862 74.5001L71.5838 69.4522C70.6423 68.4827 69.3484 67.9356 67.9969 67.9356H61.2059C61.3057 67.2759 61.3563 66.5843 61.3563 65.8604V47.3204C61.3563 46.0004 61.6567 44.9201 62.2567 44.0801C62.9167 43.2401 63.6965 42.5797 64.5965 42.0997C65.4964 41.6197 66.4266 41.2904 67.3865 41.1104C68.3465 40.8704 69.1572 40.7501 69.8172 40.7501V32.6505C69.1572 32.6505 68.3465 32.5599 67.3865 32.3799C66.4266 32.1399 65.4964 31.75 64.5965 31.21C63.6966 30.67 62.9166 29.92 62.2567 28.96C61.6567 28.0001 61.3563 26.8002 61.3563 25.3604V7.5401C61.3563 7.00954 61.3298 6.49615 61.2762 6.00006H82.783ZM51.0946 6.00006C51.2922 6.46718 51.4138 6.98025 51.4569 7.5401C51.5768 8.26007 51.6365 8.95044 51.6365 9.61041V26.6202C51.6366 28.78 51.9967 30.52 52.7166 31.8399C53.4366 33.0999 54.2771 34.0896 55.2371 34.8096C56.2571 35.4696 57.2767 35.9202 58.2967 36.1602C59.3767 36.4002 60.2769 36.5504 60.9969 36.6104V36.7901C60.2769 36.9101 59.3767 37.12 58.2967 37.42C57.2768 37.72 56.2571 38.2303 55.2371 38.9503C54.2771 39.6103 53.4366 40.5403 52.7166 41.7403C51.9967 42.9403 51.6365 44.4404 51.6365 46.2403V63.7901C51.6365 64.4501 51.5769 65.1404 51.4569 65.8604C51.3968 66.6401 51.1868 67.3299 50.827 67.9297C50.8259 67.9317 50.8241 67.9337 50.8231 67.9356H36.6199C36.6188 67.9336 36.6171 67.9318 36.616 67.9297C36.2561 67.3299 36.0163 66.6402 35.8963 65.8604C35.8363 65.1404 35.8055 64.4501 35.8055 63.7901V46.7803C35.8055 44.6204 35.4454 42.9104 34.7254 41.6505C34.0054 40.3305 33.136 39.3397 32.116 38.6797C31.156 37.9598 30.1355 37.4803 29.0555 37.2403C28.0357 37.0004 27.166 36.8501 26.4461 36.7901V36.6104C27.166 36.5504 28.0358 36.3703 29.0555 36.0704C30.1355 35.7104 31.156 35.2001 32.116 34.5401C33.1359 33.8202 34.0055 32.86 34.7254 31.6602C35.4454 30.4603 35.8055 28.9601 35.8055 27.1602V9.61041C35.8055 8.95043 35.8363 8.26009 35.8963 7.5401C35.9824 6.98028 36.1309 6.46716 36.3406 6.00006H51.0946ZM26.1658 6.0069C26.1127 6.50087 26.0858 7.01197 26.0858 7.5401V26.0801C26.0857 27.4001 25.7555 28.4804 25.0955 29.3204C24.4356 30.1602 23.6555 30.8498 22.7557 31.3897C21.8557 31.8697 20.9256 32.1999 19.9656 32.3799C19.0057 32.5599 18.2258 32.6505 17.6258 32.6505V40.7501C18.2258 40.7501 19.0057 40.8704 19.9656 41.1104C20.9256 41.2904 21.8557 41.6505 22.7557 42.1905C23.6557 42.7305 24.4355 43.4805 25.0955 44.4405C25.7555 45.4005 26.0858 46.6002 26.0858 48.0401V65.8604C26.0858 66.5843 26.1373 67.2759 26.2371 67.9356H6.86701C4.22474 67.9356 2.03892 65.8795 1.87678 63.2422L0.00959055 32.8672C-0.00598687 32.6138 -0.00271444 32.3594 0.0203327 32.1065L1.79279 12.6612C2.00921 10.2884 3.86998 8.39767 6.23908 8.14362L26.1658 6.0069Z" fill="white"/>
</svg>
