<svg width="345" height="88" viewBox="0 0 345 88" fill="none" xmlns="http://www.w3.org/2000/svg">
<path d="M140.826 23.96H153.186V32.96H140.826V71.48C140.826 72.68 140.906 73.64 141.066 74.36C141.306 75.08 141.706 75.64 142.266 76.04C142.826 76.44 143.586 76.72 144.546 76.88C145.586 76.96 146.906 77 148.506 77H153.186V86H145.386C142.746 86 140.466 85.84 138.546 85.52C136.706 85.12 135.186 84.44 133.986 83.48C132.866 82.52 132.026 81.16 131.466 79.4C130.906 77.64 130.626 75.32 130.626 72.44V32.96H120.066V23.96H130.626V5.35999H140.826V23.96ZM206.398 49.04C206.238 46.64 205.678 44.36 204.718 42.2C203.838 40.04 202.598 38.2 200.998 36.68C199.478 35.08 197.638 33.84 195.478 32.96C193.398 32 191.078 31.52 188.518 31.52C185.878 31.52 183.478 32 181.318 32.96C179.238 33.84 177.438 35.08 175.918 36.68C174.398 38.28 173.198 40.16 172.318 42.32C171.438 44.4 170.918 46.64 170.758 49.04H206.398ZM216.238 66.32C214.878 73.28 211.878 78.52 207.238 82.04C202.598 85.56 196.758 87.32 189.718 87.32C184.758 87.32 180.438 86.52 176.758 84.92C173.158 83.32 170.118 81.08 167.638 78.2C165.158 75.32 163.278 71.88 161.998 67.88C160.798 63.88 160.118 59.52 159.958 54.8C159.958 50.08 160.678 45.76 162.118 41.84C163.558 37.92 165.558 34.52 168.118 31.64C170.758 28.76 173.838 26.52 177.358 24.92C180.958 23.32 184.878 22.52 189.118 22.52C194.638 22.52 199.198 23.68 202.798 26C206.478 28.24 209.398 31.12 211.558 34.64C213.798 38.16 215.318 42 216.118 46.16C216.998 50.32 217.358 54.28 217.198 58.04H170.758C170.678 60.76 170.998 63.36 171.718 65.84C172.438 68.24 173.598 70.4 175.198 72.32C176.798 74.16 178.838 75.64 181.318 76.76C183.798 77.88 186.718 78.44 190.078 78.44C194.398 78.44 197.918 77.44 200.638 75.44C203.438 73.44 205.278 70.4 206.158 66.32H216.238ZM281.531 85.76C279.771 86.8 277.331 87.32 274.211 87.32C271.571 87.32 269.451 86.6 267.851 85.16C266.331 83.64 265.571 81.2 265.571 77.84C262.771 81.2 259.491 83.64 255.731 85.16C252.051 86.6 248.051 87.32 243.731 87.32C240.931 87.32 238.251 87 235.691 86.36C233.211 85.72 231.051 84.72 229.211 83.36C227.371 82 225.891 80.24 224.771 78.08C223.731 75.84 223.211 73.16 223.211 70.04C223.211 66.52 223.811 63.64 225.011 61.4C226.211 59.16 227.771 57.36 229.691 56C231.691 54.56 233.931 53.48 236.411 52.76C238.971 52.04 241.571 51.44 244.211 50.96C247.011 50.4 249.651 50 252.131 49.76C254.691 49.44 256.931 49.04 258.851 48.56C260.771 48 262.291 47.24 263.411 46.28C264.531 45.24 265.091 43.76 265.091 41.84C265.091 39.6 264.651 37.8 263.771 36.44C262.971 35.08 261.891 34.04 260.531 33.32C259.251 32.6 257.771 32.12 256.091 31.88C254.491 31.64 252.891 31.52 251.291 31.52C246.971 31.52 243.371 32.36 240.491 34.04C237.611 35.64 236.051 38.72 235.811 43.28H225.611C225.771 39.44 226.571 36.2 228.011 33.56C229.451 30.92 231.371 28.8 233.771 27.2C236.171 25.52 238.891 24.32 241.931 23.6C245.051 22.88 248.371 22.52 251.891 22.52C254.691 22.52 257.451 22.72 260.171 23.12C262.971 23.52 265.491 24.36 267.731 25.64C269.971 26.84 271.771 28.56 273.131 30.8C274.491 33.04 275.171 35.96 275.171 39.56V71.48C275.171 73.88 275.291 75.64 275.531 76.76C275.851 77.88 276.811 78.44 278.411 78.44C279.291 78.44 280.331 78.24 281.531 77.84V85.76ZM264.971 53.96C263.691 54.92 262.011 55.64 259.931 56.12C257.851 56.52 255.651 56.88 253.331 57.2C251.091 57.44 248.811 57.76 246.491 58.16C244.171 58.48 242.091 59.04 240.251 59.84C238.411 60.64 236.891 61.8 235.691 63.32C234.571 64.76 234.011 66.76 234.011 69.32C234.011 71 234.331 72.44 234.971 73.64C235.691 74.76 236.571 75.68 237.611 76.4C238.731 77.12 240.011 77.64 241.451 77.96C242.891 78.28 244.411 78.44 246.011 78.44C249.371 78.44 252.251 78 254.651 77.12C257.051 76.16 259.011 75 260.531 73.64C262.051 72.2 263.171 70.68 263.891 69.08C264.611 67.4 264.971 65.84 264.971 64.4V53.96ZM290.424 0.319994H300.624V51.08L328.944 23.96H342.624L318.024 46.52L344.424 86H331.464L310.224 53.6L300.624 62.48V86H290.424V0.319994Z" fill="white"/>
<path d="M82.7832 6.00006C85.2508 6.00006 87.35 7.80051 87.7256 10.2393L89.9277 24.5411C89.9665 24.7928 89.9863 25.0472 89.9863 25.3018V82.9532C89.9863 83.8327 89.5097 84.6436 88.7412 85.0714C87.7625 85.6161 86.5379 85.4189 85.7793 84.5948L76.4863 74.5001L71.584 69.4522C70.6424 68.4827 69.3485 67.9356 67.9971 67.9356H61.2061C61.3059 67.2759 61.3564 66.5843 61.3564 65.8604V47.3204C61.3564 46.0004 61.6569 44.9201 62.2568 44.0801C62.9168 43.2401 63.6967 42.5797 64.5967 42.0997C65.4966 41.6197 66.4268 41.2904 67.3867 41.1104C68.3467 40.8704 69.1574 40.7501 69.8174 40.7501V32.6505C69.1574 32.6505 68.3467 32.5599 67.3867 32.3799C66.4268 32.1399 65.4966 31.75 64.5967 31.21C63.6967 30.67 62.9168 29.92 62.2568 28.96C61.6569 28.0001 61.3565 26.8002 61.3564 25.3604V7.5401C61.3564 7.00954 61.33 6.49615 61.2764 6.00006H82.7832ZM51.0947 6.00006C51.2923 6.46718 51.414 6.98025 51.457 7.5401C51.577 8.26007 51.6367 8.95044 51.6367 9.61041V26.6202C51.6367 28.78 51.9969 30.52 52.7168 31.8399C53.4368 33.0999 54.2773 34.0896 55.2373 34.8096C56.2573 35.4696 57.2769 35.9202 58.2969 36.1602C59.3769 36.4002 60.2771 36.5504 60.9971 36.6104V36.7901C60.2771 36.9101 59.3769 37.12 58.2969 37.42C57.2769 37.72 56.2572 38.2303 55.2373 38.9503C54.2773 39.6103 53.4368 40.5403 52.7168 41.7403C51.9969 42.9403 51.6367 44.4404 51.6367 46.2403V63.7901C51.6367 64.4501 51.577 65.1404 51.457 65.8604C51.397 66.6401 51.187 67.3299 50.8271 67.9297C50.8261 67.9317 50.8243 67.9337 50.8232 67.9356H36.6201C36.619 67.9336 36.6173 67.9318 36.6162 67.9297C36.2563 67.3299 36.0165 66.6402 35.8965 65.8604C35.8365 65.1404 35.8057 64.4501 35.8057 63.7901V46.7803C35.8057 44.6204 35.4455 42.9104 34.7256 41.6505C34.0056 40.3305 33.1362 39.3397 32.1162 38.6797C31.1562 37.9598 30.1357 37.4803 29.0557 37.2403C28.0359 37.0004 27.1662 36.8501 26.4463 36.7901V36.6104C27.1661 36.5504 28.036 36.3703 29.0557 36.0704C30.1357 35.7104 31.1562 35.2001 32.1162 34.5401C33.1361 33.8202 34.0056 32.86 34.7256 31.6602C35.4456 30.4603 35.8056 28.9601 35.8057 27.1602V9.61041C35.8057 8.95043 35.8365 8.26009 35.8965 7.5401C35.9826 6.98028 36.1311 6.46716 36.3408 6.00006H51.0947ZM26.166 6.0069C26.1129 6.50087 26.0859 7.01197 26.0859 7.5401V26.0801C26.0859 27.4001 25.7557 28.4804 25.0957 29.3204C24.4358 30.1602 23.6557 30.8498 22.7559 31.3897C21.8559 31.8697 20.9258 32.1999 19.9658 32.3799C19.0059 32.5599 18.2259 32.6505 17.626 32.6505V40.7501C18.226 40.7501 19.0059 40.8704 19.9658 41.1104C20.9258 41.2904 21.8559 41.6505 22.7559 42.1905C23.6558 42.7305 24.4357 43.4805 25.0957 44.4405C25.7556 45.4005 26.0859 46.6002 26.0859 48.0401V65.8604C26.086 66.5843 26.1375 67.2759 26.2373 67.9356H6.86719C4.22491 67.9356 2.0391 65.8795 1.87695 63.2422L0.00976562 32.8672C-0.00581179 32.6138 -0.00253936 32.3594 0.0205078 32.1065L1.79297 12.6612C2.00939 10.2884 3.87015 8.39766 6.23926 8.14362L26.166 6.0069Z" fill="white"/>
</svg>
